<svg width="94" height="93" viewBox="0 0 94 93" fill="none" xmlns="http://www.w3.org/2000/svg">
<rect width="94" height="93" fill="white"/>
<path d="M28.384 64.48C26.224 64.48 24.504 63.696 23.224 62.128C21.944 60.544 21.16 58.312 20.872 55.432V64H11.032V63.832H14.176V28.168H11.032V28H20.872V50.488C21.16 47.608 21.936 45.392 23.2 43.84C24.48 42.272 26.208 41.488 28.384 41.488C30.128 41.488 31.768 41.944 33.304 42.856C34.856 43.768 36.112 45.08 37.072 46.792C38.048 48.504 38.536 50.56 38.536 52.96C38.536 55.36 38.048 57.424 37.072 59.152C36.112 60.864 34.856 62.184 33.304 63.112C31.768 64.024 30.128 64.48 28.384 64.48ZM26.92 63.832C27.848 63.832 28.6 63.408 29.176 62.56C29.768 61.696 30.2 60.456 30.472 58.84C30.744 57.224 30.88 55.264 30.88 52.96C30.88 50.656 30.744 48.704 30.472 47.104C30.2 45.488 29.768 44.256 29.176 43.408C28.6 42.56 27.848 42.136 26.92 42.136C25.896 42.136 24.92 42.536 23.992 43.336C23.08 44.12 22.328 45.312 21.736 46.912C21.16 48.512 20.872 50.528 20.872 52.96C20.872 55.392 21.16 57.416 21.736 59.032C22.328 60.632 23.08 61.832 23.992 62.632C24.92 63.432 25.896 63.832 26.92 63.832ZM46.5213 64.48C45.7213 64.48 44.9933 64.288 44.3373 63.904C43.6973 63.504 43.1773 62.976 42.7773 62.32C42.3933 61.664 42.2013 60.944 42.2013 60.16C42.2013 59.376 42.3933 58.656 42.7773 58C43.1773 57.328 43.6973 56.8 44.3373 56.416C44.9933 56.016 45.7213 55.816 46.5213 55.816C47.3053 55.816 48.0253 56.016 48.6813 56.416C49.3533 56.8 49.8813 57.328 50.2653 58C50.6493 58.656 50.8413 59.376 50.8413 60.16C50.8413 60.944 50.6493 61.664 50.2653 62.32C49.8813 62.976 49.3533 63.504 48.6813 63.904C48.0253 64.288 47.3053 64.48 46.5213 64.48ZM71.134 64.48C68.974 64.48 67.254 63.696 65.974 62.128C64.694 60.544 63.91 58.312 63.622 55.432V64H53.782V63.832H56.926V28.168H53.782V28H63.622V50.488C63.91 47.608 64.686 45.392 65.95 43.84C67.23 42.272 68.958 41.488 71.134 41.488C72.878 41.488 74.518 41.944 76.054 42.856C77.606 43.768 78.862 45.08 79.822 46.792C80.798 48.504 81.286 50.56 81.286 52.96C81.286 55.36 80.798 57.424 79.822 59.152C78.862 60.864 77.606 62.184 76.054 63.112C74.518 64.024 72.878 64.48 71.134 64.48ZM69.67 63.832C70.598 63.832 71.35 63.408 71.926 62.56C72.518 61.696 72.95 60.456 73.222 58.84C73.494 57.224 73.63 55.264 73.63 52.96C73.63 50.656 73.494 48.704 73.222 47.104C72.95 45.488 72.518 44.256 71.926 43.408C71.35 42.56 70.598 42.136 69.67 42.136C68.646 42.136 67.67 42.536 66.742 43.336C65.83 44.12 65.078 45.312 64.486 46.912C63.91 48.512 63.622 50.528 63.622 52.96C63.622 55.392 63.91 57.416 64.486 59.032C65.078 60.632 65.83 61.832 66.742 62.632C67.67 63.432 68.646 63.832 69.67 63.832Z" fill="#3E3E3E"/>
</svg>
