<svg width="137" height="75" viewBox="0 0 137 75" fill="none" xmlns="http://www.w3.org/2000/svg">
<g clip-path="url(#clip0_30_281)">
<path d="M12.5 75C19.4 75 25 69.4 25 62.5V50H12.5C5.6 50 0 55.6 0 62.5C0 69.4 5.6 75 12.5 75Z" fill="url(#paint0_linear_30_281)"/>
<path d="M0 37.5C0 30.6 5.6 25 12.5 25H25V50H12.5C5.6 50 0 44.4 0 37.5Z" fill="url(#paint1_linear_30_281)"/>
<path d="M0 12.5C0 5.6 5.6 0 12.5 0H25V25H12.5C5.6 25 0 19.4 0 12.5Z" fill="url(#paint2_linear_30_281)"/>
<path d="M25 0H37.5C44.4 0 50 5.6 50 12.5C50 19.4 44.4 25 37.5 25H25V0Z" fill="url(#paint3_linear_30_281)"/>
<path d="M50 37.5C50 44.4 44.4 50 37.5 50C30.6 50 25 44.4 25 37.5C25 30.6 30.6 25 37.5 25C44.4 25 50 30.6 50 37.5Z" fill="url(#paint4_linear_30_281)"/>
</g>
<g clip-path="url(#clip1_30_281)">
<mask id="mask0_30_281" style="mask-type:alpha" maskUnits="userSpaceOnUse" x="61" y="0" width="76" height="75">
<path fill-rule="evenodd" clip-rule="evenodd" d="M115.184 74.488C115.781 74.7207 116.419 74.8281 117.059 74.8035C117.699 74.7789 118.327 74.6228 118.904 74.345L134.346 66.9148C135.141 66.532 135.812 65.9324 136.281 65.1852C136.751 64.4379 137 63.5733 137 62.6907V12.3101C137 11.4274 136.751 10.5627 136.282 9.8153C135.812 9.06792 135.141 8.46831 134.346 8.08547L118.904 0.656364C118.032 0.236543 117.05 0.0983183 116.096 0.26082C115.141 0.423321 114.261 0.878512 113.577 1.5634L84.016 28.5318L71.1406 18.7577C70.5598 18.3167 69.8429 18.093 69.1144 18.1253C68.3858 18.1576 67.6916 18.444 67.1521 18.9347L63.0224 22.6911C62.7006 22.9838 62.4434 23.3405 62.2673 23.7383C62.0912 24.1361 62.0001 24.5663 61.9998 25.0013C61.9994 25.4363 62.0899 25.8666 62.2654 26.2647C62.4409 26.6628 62.6975 27.0198 63.0189 27.313L74.1851 37.5001L63.0195 47.6878C62.6983 47.9811 62.4418 48.3381 62.2664 48.7361C62.091 49.1341 62.0006 49.5643 62.0009 49.9992C62.0013 50.4342 62.0923 50.8642 62.2683 51.262C62.4443 51.6597 62.7014 52.0163 63.023 52.3091L67.1527 56.0655C67.6921 56.5564 68.3863 56.843 69.1148 56.8754C69.8434 56.9078 70.5603 56.6841 71.1412 56.2431L84.0166 46.4696L113.577 73.4374C114.034 73.8953 114.581 74.2531 115.184 74.488ZM118.261 20.4745L95.832 37.5001L118.262 54.5263L118.261 20.4745Z" fill="white"/>
</mask>
<g mask="url(#mask0_30_281)">
<path d="M134.346 8.09816L118.893 0.656759C118.02 0.23666 117.038 0.0982848 116.083 0.260788C115.128 0.42329 114.247 0.878633 113.562 1.56379L62.9737 47.6882C62.6523 47.9813 62.3956 48.3383 62.2201 48.7363C62.0445 49.1343 61.954 49.5646 61.9543 49.9996C61.9547 50.4346 62.0458 50.8648 62.222 51.2625C62.3981 51.6603 62.6554 52.0169 62.9773 52.3095L67.1093 56.0659C67.6491 56.5568 68.3437 56.8433 69.0726 56.8757C69.8015 56.9081 70.5188 56.6845 71.1001 56.2435L132.021 10.0277C134.064 8.47727 137 9.93508 137 12.5003V12.321C137 11.4386 136.751 10.5742 136.281 9.82708C135.812 9.07996 135.141 8.48106 134.346 8.09816Z" fill="url(#paint5_linear_30_281)"/>
<g filter="url(#filter0_d_30_281)">
<path d="M134.346 66.903L118.893 74.3433C118.02 74.7635 117.038 74.9021 116.083 74.7398C115.128 74.5775 114.247 74.1224 113.562 73.4374L62.9737 27.3124C62.6523 27.0193 62.3956 26.6623 62.2201 26.2643C62.0445 25.8663 61.954 25.436 61.9543 25.001C61.9547 24.566 62.0458 24.1358 62.222 23.7381C62.3981 23.3403 62.6554 22.9837 62.9773 22.6911L67.1093 18.9347C67.6491 18.4438 68.3437 18.1573 69.0726 18.1249C69.8015 18.0925 70.5188 18.3162 71.1001 18.7571L132.021 64.9724C134.064 66.5234 137 65.0655 137 62.5003V62.6796C137 63.562 136.751 64.4264 136.281 65.1735C135.812 65.9207 135.141 66.5201 134.346 66.903Z" fill="url(#paint6_linear_30_281)"/>
</g>
<g filter="url(#filter1_d_30_281)">
<path d="M118.893 74.3451C118.02 74.765 117.038 74.9031 116.083 74.7405C115.128 74.5779 114.247 74.1226 113.562 73.4375C115.292 75.1672 118.25 73.942 118.25 71.4957V3.50412C118.25 1.05783 115.292 -0.167363 113.562 1.56291C114.247 0.877834 115.128 0.422511 116.083 0.259914C117.038 0.0973163 118.02 0.235479 118.893 0.655293L134.344 8.08615C135.14 8.46875 135.811 9.06825 136.281 9.81564C136.751 10.563 137 11.4279 137 12.3108V62.6908C137 63.5737 136.751 64.4386 136.281 65.186C135.811 65.9333 135.14 66.5329 134.344 66.9155L118.893 74.3451Z" fill="url(#paint7_linear_30_281)"/>
</g>
<path opacity="0.25" fill-rule="evenodd" clip-rule="evenodd" d="M115.139 74.488C115.735 74.7206 116.374 74.828 117.014 74.8034C117.654 74.7788 118.282 74.6228 118.859 74.345L134.3 66.9148C135.095 66.5319 135.766 65.9323 136.236 65.1849C136.705 64.4376 136.954 63.5728 136.954 62.6902V12.3101C136.954 11.4274 136.705 10.5627 136.236 9.8153C135.766 9.06792 135.095 8.46831 134.3 8.08547L118.859 0.656364C117.986 0.236543 117.005 0.0983183 116.05 0.26082C115.096 0.423321 114.215 0.878512 113.531 1.5634L83.9703 28.5318L71.0949 18.7583C70.5141 18.3173 69.7972 18.0936 69.0687 18.1259C68.3401 18.1582 67.6459 18.4446 67.1064 18.9353L62.9767 22.6917C62.655 22.9845 62.3979 23.3411 62.2218 23.7389C62.0458 24.1367 61.9547 24.5669 61.9543 25.0019C61.954 25.4369 62.0445 25.8672 62.2199 26.2652C62.3953 26.6633 62.6519 27.0203 62.9732 27.3136L74.1394 37.5001L62.9738 47.6872C62.6524 47.9804 62.3958 48.3375 62.2203 48.7355C62.0448 49.1336 61.9543 49.5639 61.9546 49.9989C61.955 50.434 62.0461 50.8641 62.2222 51.2619C62.3983 51.6597 62.6555 52.0164 62.9773 52.3091L67.107 56.0655C67.6464 56.5563 68.3406 56.8428 69.0692 56.8752C69.7977 56.9076 70.5146 56.684 71.0955 56.2431L83.9715 46.4691L113.532 73.4374C113.989 73.8952 114.536 74.253 115.139 74.488ZM118.216 20.4739L95.7863 37.5001L118.216 54.5257V20.4739Z" fill="url(#paint8_linear_30_281)"/>
</g>
</g>
<defs>
<filter id="filter0_d_30_281" x="53.6203" y="9.78783" width="91.7137" height="73.3521" filterUnits="userSpaceOnUse" color-interpolation-filters="sRGB">
<feFlood flood-opacity="0" result="BackgroundImageFix"/>
<feColorMatrix in="SourceAlpha" type="matrix" values="0 0 0 0 0 0 0 0 0 0 0 0 0 0 0 0 0 0 127 0" result="hardAlpha"/>
<feOffset/>
<feGaussianBlur stdDeviation="4.167"/>
<feColorMatrix type="matrix" values="0 0 0 0 0 0 0 0 0 0 0 0 0 0 0 0 0 0 0.25 0"/>
<feBlend mode="overlay" in2="BackgroundImageFix" result="effect1_dropShadow_30_281"/>
<feBlend mode="normal" in="SourceGraphic" in2="effect1_dropShadow_30_281" result="shape"/>
</filter>
<filter id="filter1_d_30_281" x="105.229" y="-8.1404" width="40.1055" height="91.2813" filterUnits="userSpaceOnUse" color-interpolation-filters="sRGB">
<feFlood flood-opacity="0" result="BackgroundImageFix"/>
<feColorMatrix in="SourceAlpha" type="matrix" values="0 0 0 0 0 0 0 0 0 0 0 0 0 0 0 0 0 0 127 0" result="hardAlpha"/>
<feOffset/>
<feGaussianBlur stdDeviation="4.167"/>
<feColorMatrix type="matrix" values="0 0 0 0 0 0 0 0 0 0 0 0 0 0 0 0 0 0 0.25 0"/>
<feBlend mode="overlay" in2="BackgroundImageFix" result="effect1_dropShadow_30_281"/>
<feBlend mode="normal" in="SourceGraphic" in2="effect1_dropShadow_30_281" result="shape"/>
</filter>
<linearGradient id="paint0_linear_30_281" x1="0" y1="50" x2="26.5185" y2="51.7306" gradientUnits="userSpaceOnUse">
<stop stop-color="#7C6BD7"/>
<stop offset="1" stop-color="#DAAED6"/>
</linearGradient>
<linearGradient id="paint1_linear_30_281" x1="0" y1="25" x2="26.5185" y2="26.7306" gradientUnits="userSpaceOnUse">
<stop stop-color="#7C6BD7"/>
<stop offset="1" stop-color="#DAAED6"/>
</linearGradient>
<linearGradient id="paint2_linear_30_281" x1="0" y1="0" x2="26.5185" y2="1.73058" gradientUnits="userSpaceOnUse">
<stop stop-color="#7C6BD7"/>
<stop offset="1" stop-color="#DAAED6"/>
</linearGradient>
<linearGradient id="paint3_linear_30_281" x1="25" y1="0" x2="51.5185" y2="1.73058" gradientUnits="userSpaceOnUse">
<stop stop-color="#7C6BD7"/>
<stop offset="1" stop-color="#DAAED6"/>
</linearGradient>
<linearGradient id="paint4_linear_30_281" x1="25" y1="25" x2="51.5185" y2="26.7306" gradientUnits="userSpaceOnUse">
<stop stop-color="#7C6BD7"/>
<stop offset="1" stop-color="#DAAED6"/>
</linearGradient>
<linearGradient id="paint5_linear_30_281" x1="61.9543" y1="0.19458" x2="141.305" y2="7.05032" gradientUnits="userSpaceOnUse">
<stop stop-color="#7C6BD7"/>
<stop offset="1" stop-color="#DAAED6"/>
</linearGradient>
<linearGradient id="paint6_linear_30_281" x1="61.9543" y1="18.1218" x2="141.305" y2="24.9776" gradientUnits="userSpaceOnUse">
<stop stop-color="#7C6BD7"/>
<stop offset="1" stop-color="#DAAED6"/>
</linearGradient>
<linearGradient id="paint7_linear_30_281" x1="113.562" y1="0.193604" x2="138.519" y2="0.705192" gradientUnits="userSpaceOnUse">
<stop stop-color="#7C6BD7"/>
<stop offset="1" stop-color="#DAAED6"/>
</linearGradient>
<linearGradient id="paint8_linear_30_281" x1="99.4543" y1="0.193473" x2="99.4543" y2="74.8067" gradientUnits="userSpaceOnUse">
<stop stop-color="white"/>
<stop offset="1" stop-color="white" stop-opacity="0"/>
</linearGradient>
<clipPath id="clip0_30_281">
<rect width="50" height="75" fill="white"/>
</clipPath>
<clipPath id="clip1_30_281">
<rect width="75" height="75" fill="white" transform="translate(62)"/>
</clipPath>
</defs>
</svg>
