<svg width="162" height="75" viewBox="0 0 162 75" fill="none" xmlns="http://www.w3.org/2000/svg">
<path d="M124.5 6.25C120.396 6.25 116.333 7.05831 112.541 8.62876C108.75 10.1992 105.305 12.5011 102.403 15.4029C96.5424 21.2634 93.25 29.212 93.25 37.5C93.25 51.3125 102.219 63.0312 114.625 67.1875C116.188 67.4375 116.688 66.4687 116.688 65.625V60.3437C108.031 62.2187 106.188 56.1562 106.188 56.1562C104.75 52.5312 102.719 51.5625 102.719 51.5625C99.875 49.625 102.938 49.6875 102.938 49.6875C106.062 49.9062 107.719 52.9062 107.719 52.9062C110.438 57.6562 115.031 56.25 116.812 55.5C117.094 53.4687 117.906 52.0937 118.781 51.3125C111.844 50.5312 104.562 47.8437 104.562 35.9375C104.562 32.4687 105.75 29.6875 107.781 27.4687C107.469 26.6875 106.375 23.4375 108.094 19.2187C108.094 19.2187 110.719 18.375 116.688 22.4062C119.156 21.7187 121.844 21.375 124.5 21.375C127.156 21.375 129.844 21.7187 132.312 22.4062C138.281 18.375 140.906 19.2187 140.906 19.2187C142.625 23.4375 141.531 26.6875 141.219 27.4687C143.25 29.6875 144.437 32.4687 144.437 35.9375C144.437 47.875 137.125 50.5 130.156 51.2812C131.281 52.25 132.312 54.1562 132.312 57.0625V65.625C132.312 66.4687 132.812 67.4687 134.406 67.1875C146.812 63 155.75 51.3125 155.75 37.5C155.75 33.3962 154.942 29.3326 153.371 25.5411C151.801 21.7497 149.499 18.3047 146.597 15.4029C143.695 12.5011 140.25 10.1992 136.459 8.62876C132.667 7.05831 128.604 6.25 124.5 6.25Z" fill="url(#paint0_linear_30_272)"/>
<g clip-path="url(#clip0_30_272)">
<path d="M73.5844 34.1579L40.8375 1.4157C40.3892 0.967116 39.8568 0.611265 39.2709 0.36848C38.685 0.125695 38.0569 0.000732422 37.4227 0.000732422C36.7884 0.000732422 36.1604 0.125695 35.5745 0.36848C34.9886 0.611265 34.4562 0.967116 34.0078 1.4157L27.211 8.21258L35.836 16.8376C36.8532 16.4903 37.9475 16.4359 38.9941 16.6808C40.0407 16.9256 40.9974 17.4597 41.755 18.2222C42.5126 18.9847 43.0406 19.9448 43.2787 20.993C43.5168 22.0411 43.4554 23.1351 43.1016 24.1501L51.4125 32.4657C52.6421 32.0328 53.9825 32.0315 55.2129 32.462C56.4434 32.8925 57.4905 33.7292 58.1819 34.8343C58.8734 35.9394 59.1679 37.247 59.0169 38.5418C58.866 39.8366 58.2787 41.0415 57.3516 41.9579C56.4131 42.9022 55.1758 43.4913 53.8512 43.6247C52.5266 43.758 51.1967 43.4273 50.0888 42.6891C48.9809 41.9509 48.1637 40.8509 47.7767 39.577C47.3898 38.3032 47.4571 36.9345 47.9672 35.7048L40.2188 27.9516V48.3563C41.3965 48.9393 42.3389 49.9084 42.8889 51.1019C43.4388 52.2955 43.563 53.6415 43.2408 54.9156C42.9187 56.1896 42.1696 57.3148 41.1184 58.1035C40.0673 58.8922 38.7775 59.2969 37.4642 59.25C36.1509 59.2031 34.8933 58.7074 33.9011 57.8457C32.9089 56.984 32.2419 55.8083 32.0115 54.5145C31.781 53.2207 32.001 51.887 32.6346 50.7357C33.2683 49.5844 34.2774 48.6851 35.4938 48.1876V27.5954C34.792 27.3078 34.1541 26.8842 33.6168 26.349C33.0795 25.8137 32.6535 25.1774 32.3633 24.4767C32.0731 23.776 31.9244 23.0248 31.9259 22.2664C31.9274 21.508 32.079 20.7574 32.3719 20.0579L23.8735 11.5548L1.42034 34.0079C0.971754 34.4563 0.615904 34.9886 0.373119 35.5745C0.130333 36.1605 0.00537109 36.7885 0.00537109 37.4227C0.00537109 38.057 0.130333 38.685 0.373119 39.2709C0.615904 39.8569 0.971754 40.3892 1.42034 40.8376L34.1672 73.5844C34.6156 74.033 35.1479 74.3889 35.7339 74.6317C36.3198 74.8745 36.9478 74.9994 37.5821 74.9994C38.2163 74.9994 38.8443 74.8745 39.4303 74.6317C40.0162 74.3889 40.5485 74.033 40.9969 73.5844L73.5891 40.9923C74.4939 40.0861 75.0021 38.858 75.0021 37.5774C75.0021 36.2969 74.4939 35.0687 73.5891 34.1626" fill="url(#paint1_linear_30_272)"/>
</g>
<defs>
<linearGradient id="paint0_linear_30_272" x1="93.25" y1="6.25" x2="159.532" y2="10.6829" gradientUnits="userSpaceOnUse">
<stop stop-color="#7C6BD7"/>
<stop offset="1" stop-color="#DAAED6"/>
</linearGradient>
<linearGradient id="paint1_linear_30_272" x1="0.00537109" y1="0.000732422" x2="79.5576" y2="5.1921" gradientUnits="userSpaceOnUse">
<stop stop-color="#7C6BD7"/>
<stop offset="1" stop-color="#DAAED6"/>
</linearGradient>
<clipPath id="clip0_30_272">
<rect width="75" height="75" fill="white"/>
</clipPath>
</defs>
</svg>
