<svg width="79" height="75" viewBox="0 0 79 75" fill="none" xmlns="http://www.w3.org/2000/svg">
<g clip-path="url(#clip0_28_182)">
<path d="M54.5228 52.172C57.4266 51.8714 59.6296 49.3681 59.5294 46.3638C59.4295 43.3598 56.9259 40.9565 53.9219 40.9565H53.7218C50.6173 41.0567 48.2142 43.6601 48.3144 46.7643C48.4146 48.2665 49.0153 49.5682 49.9165 50.4695C46.512 57.1789 41.305 62.0855 33.4946 66.1912C28.1874 68.9951 22.6801 69.9965 17.1728 69.2957C12.6667 68.6948 9.16198 66.6922 6.95871 63.3873C3.75461 58.4806 3.4543 53.1732 6.15799 47.866C8.06065 44.0607 11.0643 41.2568 12.967 39.8548C12.5665 38.5531 11.9656 36.3501 11.6653 34.7481C-2.85431 45.2625 -1.35216 59.4821 3.05379 66.1912C6.35809 71.1984 13.0672 74.3026 20.4771 74.3026C22.4797 74.3026 24.4823 74.1021 26.4851 73.6017C39.3025 71.0982 49.0156 63.4875 54.5228 52.172ZM72.1466 39.7549C64.5363 30.8425 53.3213 25.9359 40.504 25.9359H38.9019C38.0007 24.1334 36.098 22.9316 33.9953 22.9316H33.7949C30.691 23.0318 28.2879 25.6352 28.3878 28.7398C28.488 31.7437 30.9913 34.1471 33.9953 34.1471H34.1954C36.3984 34.0469 38.301 32.645 39.102 30.7423H40.9045C48.5149 30.7423 55.7244 32.9453 62.2334 37.2513C67.24 40.5559 70.8449 44.862 72.8474 50.069C74.5497 54.2748 74.4495 58.3804 72.647 61.8854C69.8434 67.1926 65.1372 70.0967 58.9288 70.0967C54.9234 70.0967 51.1183 68.8949 49.1155 67.9936C48.0141 68.9951 46.0113 70.5971 44.6093 71.5989C48.9154 73.6014 53.3213 74.7031 57.5268 74.7031C67.1398 74.7031 74.2494 69.3956 76.9531 64.0884C79.8569 58.2802 79.6565 48.2665 72.1466 39.7549ZM21.2782 53.874C21.3784 56.8783 23.8817 59.2813 26.8857 59.2813H27.0861C30.1903 59.1815 32.5933 56.5777 32.4931 53.4735C32.3932 50.4692 29.8897 48.0661 26.8857 48.0661H26.6856C26.4851 48.0661 26.1845 48.0661 25.9847 48.166C21.8791 41.3567 20.1768 33.9467 20.7778 25.9356C21.178 19.9273 23.1808 14.72 26.6856 10.4139C29.5893 6.70881 35.1968 4.90635 39.0022 4.80645C49.6162 4.60604 54.122 17.8242 54.4226 23.1317C55.7244 23.432 57.9274 24.1331 59.4295 24.6338C58.2277 8.41168 48.2142 0 38.6016 0C29.5893 0 21.2782 6.50902 17.9736 16.1222C13.3675 28.9399 16.3715 41.2568 21.979 50.9702C21.4786 51.671 21.178 52.7723 21.2782 53.874Z" fill="url(#paint0_linear_28_182)"/>
</g>
<defs>
<linearGradient id="paint0_linear_28_182" x1="0" y1="0" x2="83.4295" y2="5.735" gradientUnits="userSpaceOnUse">
<stop stop-color="#7C6BD7"/>
<stop offset="1" stop-color="#DAAED6"/>
</linearGradient>
<clipPath id="clip0_28_182">
<rect width="78.6885" height="75" fill="white"/>
</clipPath>
</defs>
</svg>
