<svg width="162" height="75" viewBox="0 0 162 75" fill="none" xmlns="http://www.w3.org/2000/svg">
<path d="M13.8328 63.7523L8.56641 4.6875H66.4336L61.1601 63.743L37.4648 70.3125L13.8328 63.7523Z" fill="url(#paint0_linear_30_269)"/>
<path d="M37.5 65.2922L56.6484 59.9836L61.1531 9.51794H37.5V65.2922Z" fill="url(#paint1_linear_30_269)"/>
<path d="M37.5 31.4226H27.9141L27.2531 24.0047H37.5V16.7601H19.3359L19.5094 18.7054L21.2883 38.6672H37.5V31.4226ZM37.5 50.2359L37.4672 50.2453L29.4 48.0679L28.8844 42.2906H21.6117L22.6266 53.6625L37.4672 57.7828L37.5 57.7734V50.2359Z" fill="#EBEBEB"/>
<path d="M37.4741 31.4226V38.6672H46.3944L45.5554 48.0633L37.4741 50.2429V57.7804L52.3265 53.6625L52.4343 52.439L54.1358 33.3679L54.314 31.4226H37.4741ZM37.4741 16.7601V24.0047H54.9726L55.1179 22.3781L55.4483 18.7054L55.6218 16.7601H37.4741Z" fill="white"/>
<path d="M100.833 63.7523L95.5688 4.6875H153.431L148.16 63.743L124.465 70.3125L100.833 63.7523Z" fill="url(#paint2_linear_30_269)"/>
<path d="M124.5 65.2922L143.648 59.9836L148.153 9.51794H124.5V65.2922Z" fill="url(#paint3_linear_30_269)"/>
<path d="M124.5 30.9164H134.086L134.747 23.4984H124.5V16.2539H142.664L142.491 18.1969L140.712 38.1609H124.5V30.9164Z" fill="white"/>
<path d="M124.545 49.7296L124.512 49.739L116.445 47.5593L115.929 41.782H108.656L109.671 53.1562L124.509 57.2765L124.545 57.2671V49.7296Z" fill="#EBEBEB"/>
<path d="M133.47 37.8539L132.598 47.5547L124.519 49.7344V57.2719L139.369 53.1562L139.479 51.9328L140.738 37.8539H133.47Z" fill="white"/>
<path d="M124.526 16.2539V23.4984H107.027L106.882 21.8695L106.552 18.1969L106.378 16.2539H124.526ZM124.5 30.9164V38.1609H116.534L116.388 36.532L116.06 32.8594L115.887 30.9164H124.5Z" fill="#EBEBEB"/>
<defs>
<linearGradient id="paint0_linear_30_269" x1="8.56641" y1="4.6875" x2="70.0065" y2="8.22304" gradientUnits="userSpaceOnUse">
<stop stop-color="#7C6BD7"/>
<stop offset="1" stop-color="#DAAED6"/>
</linearGradient>
<linearGradient id="paint1_linear_30_269" x1="37.5" y1="9.51794" x2="62.6774" y2="10.2147" gradientUnits="userSpaceOnUse">
<stop stop-color="#7C6BD7"/>
<stop offset="1" stop-color="#DAAED6"/>
</linearGradient>
<linearGradient id="paint2_linear_30_269" x1="95.5688" y1="4.6875" x2="157.004" y2="8.22247" gradientUnits="userSpaceOnUse">
<stop stop-color="#7C6BD7"/>
<stop offset="1" stop-color="#DAAED6"/>
</linearGradient>
<linearGradient id="paint3_linear_30_269" x1="124.5" y1="9.51794" x2="149.677" y2="10.2147" gradientUnits="userSpaceOnUse">
<stop stop-color="#7C6BD7"/>
<stop offset="1" stop-color="#DAAED6"/>
</linearGradient>
</defs>
</svg>
