<svg width="250" height="73" viewBox="0 0 250 73" fill="none" xmlns="http://www.w3.org/2000/svg">
<path d="M18.384 54.4802C16.224 54.4802 14.504 53.6962 13.224 52.1282C11.944 50.5442 11.16 48.3122 10.872 45.4322V54.0002H1.032V53.8322H4.176V18.1682H1.032V18.0002H10.872V40.4882C11.16 37.6082 11.936 35.3922 13.2 33.8402C14.48 32.2722 16.208 31.4882 18.384 31.4882C20.128 31.4882 21.768 31.9442 23.304 32.8562C24.856 33.7682 26.112 35.0802 27.072 36.7922C28.048 38.5042 28.536 40.5602 28.536 42.9602C28.536 45.3602 28.048 47.4242 27.072 49.1522C26.112 50.8642 24.856 52.1842 23.304 53.1122C21.768 54.0242 20.128 54.4802 18.384 54.4802ZM16.92 53.8322C17.848 53.8322 18.6 53.4082 19.176 52.5602C19.768 51.6962 20.2 50.4562 20.472 48.8402C20.744 47.2242 20.88 45.2642 20.88 42.9602C20.88 40.6562 20.744 38.7042 20.472 37.1042C20.2 35.4882 19.768 34.2562 19.176 33.4082C18.6 32.5602 17.848 32.1362 16.92 32.1362C15.896 32.1362 14.92 32.5362 13.992 33.3362C13.08 34.1202 12.328 35.3122 11.736 36.9122C11.16 38.5122 10.872 40.5282 10.872 42.9602C10.872 45.3922 11.16 47.4162 11.736 49.0322C12.328 50.6322 13.08 51.8322 13.992 52.6322C14.92 53.4322 15.896 53.8322 16.92 53.8322ZM48.6653 54.4802C46.5053 54.4802 44.7853 53.6962 43.5052 52.1282C42.2253 50.5442 41.4413 48.3122 41.1533 45.4322V54.0002H31.3133V53.8322H34.4573V18.1682H31.3133V18.0002H41.1533V40.4882C41.4413 37.6082 42.2173 35.3922 43.4813 33.8402C44.7613 32.2722 46.4893 31.4882 48.6653 31.4882C50.4093 31.4882 52.0493 31.9442 53.5853 32.8562C55.1373 33.7682 56.3933 35.0802 57.3533 36.7922C58.3293 38.5042 58.8173 40.5602 58.8173 42.9602C58.8173 45.3602 58.3293 47.4242 57.3533 49.1522C56.3933 50.8642 55.1373 52.1842 53.5853 53.1122C52.0493 54.0242 50.4093 54.4802 48.6653 54.4802ZM47.2013 53.8322C48.1293 53.8322 48.8813 53.4082 49.4573 52.5602C50.0493 51.6962 50.4813 50.4562 50.7533 48.8402C51.0253 47.2242 51.1613 45.2642 51.1613 42.9602C51.1613 40.6562 51.0253 38.7042 50.7533 37.1042C50.4813 35.4882 50.0493 34.2562 49.4573 33.4082C48.8813 32.5602 48.1293 32.1362 47.2013 32.1362C46.1773 32.1362 45.2013 32.5362 44.2733 33.3362C43.3613 34.1202 42.6093 35.3122 42.0173 36.9122C41.4413 38.5122 41.1533 40.5282 41.1533 42.9602C41.1533 45.3922 41.4413 47.4162 42.0173 49.0322C42.6093 50.6322 43.3613 51.8322 44.2733 52.6322C45.2013 53.4322 46.1773 53.8322 47.2013 53.8322ZM74.0985 54.4802C71.8425 54.4802 69.8265 54.0402 68.0505 53.1602C66.2745 52.2642 64.8745 50.9602 63.8505 49.2482C62.8265 47.5362 62.3145 45.4402 62.3145 42.9602C62.3145 40.4802 62.8105 38.3842 63.8025 36.6722C64.8105 34.9602 66.1865 33.6642 67.9305 32.7842C69.6745 31.8882 71.6745 31.4402 73.9305 31.4402C76.3145 31.4402 78.2825 31.9202 79.8345 32.8802C81.3865 33.8242 82.5385 35.0642 83.2905 36.6002C84.0585 38.1362 84.4425 39.7762 84.4425 41.5202H65.5305V41.3522H77.3145C77.3145 40.2962 77.2745 39.2082 77.1945 38.0882C77.1305 36.9522 76.9865 35.8962 76.7625 34.9202C76.5545 33.9282 76.2185 33.1282 75.7545 32.5202C75.3065 31.9122 74.6985 31.6082 73.9305 31.6082C73.1145 31.6082 72.4345 31.9122 71.8905 32.5202C71.3465 33.1282 70.9145 33.9522 70.5945 34.9922C70.2905 36.0322 70.0745 37.2002 69.9465 38.4962C69.8185 39.7762 69.7545 41.1042 69.7545 42.4802C69.7545 44.0322 69.8265 45.5122 69.9705 46.9202C70.1305 48.3122 70.4105 49.5442 70.8105 50.6162C71.2105 51.6882 71.7705 52.5362 72.4905 53.1602C73.2105 53.7842 74.1305 54.0962 75.2505 54.0962C77.5225 54.0962 79.4585 53.4402 81.0585 52.1282C82.6585 50.8002 83.7545 49.1442 84.3465 47.1602H84.5145C83.8905 49.2402 82.7225 50.9842 81.0105 52.3922C79.2985 53.7842 76.9945 54.4802 74.0985 54.4802ZM96.8374 43.4402C96.8374 41.7922 96.9414 40.2482 97.1494 38.8082C97.3574 37.3522 97.7094 36.0802 98.2054 34.9922C98.7014 33.8882 99.3734 33.0242 100.221 32.4002C101.085 31.7602 102.165 31.4402 103.461 31.4402C104.565 31.4402 105.501 31.6882 106.269 32.1842C107.037 32.6642 107.621 33.2962 108.021 34.0802C108.437 34.8482 108.645 35.6642 108.645 36.5282C108.645 37.6322 108.277 38.5922 107.541 39.4082C106.821 40.2242 105.861 40.6322 104.661 40.6322C103.445 40.6322 102.461 40.2642 101.709 39.5282C100.973 38.7922 100.605 37.9202 100.605 36.9122C100.605 35.7282 100.989 34.7602 101.757 34.0082C102.525 33.2562 103.469 32.8802 104.589 32.8802C105.373 32.8802 106.061 33.0562 106.653 33.4082C107.261 33.7602 107.733 34.2162 108.069 34.7762C108.421 35.3202 108.597 35.9042 108.597 36.5282H108.453C108.453 35.6962 108.253 34.9122 107.853 34.1762C107.469 33.4242 106.901 32.8082 106.149 32.3282C105.413 31.8482 104.517 31.6082 103.461 31.6082C102.197 31.6082 101.141 31.9202 100.293 32.5442C99.4614 33.1682 98.7974 34.0322 98.3014 35.1362C97.8214 36.2242 97.4774 37.4882 97.2694 38.9282C97.0774 40.3522 96.9814 41.8562 96.9814 43.4402H96.8374ZM96.9814 31.9202V53.8322H100.533V54.0002H87.1414V53.8322H90.2854V32.0882H87.1414V31.9202H96.9814ZM121.428 54.4562C119.684 54.4562 118.036 54.0002 116.484 53.0882C114.932 52.1762 113.668 50.8642 112.692 49.1522C111.732 47.4402 111.252 45.3842 111.252 42.9842C111.252 40.5842 111.732 38.5282 112.692 36.8162C113.668 35.0882 114.932 33.7682 116.484 32.8562C118.036 31.9282 119.684 31.4642 121.428 31.4642C123.572 31.4642 125.284 32.2562 126.564 33.8402C127.844 35.4082 128.62 37.6322 128.892 40.5122V18.1682H125.772V18.0002H135.636V53.8322H138.756V54.0002H128.892V45.4802C128.62 48.3442 127.844 50.5602 126.564 52.1282C125.3 53.6802 123.588 54.4562 121.428 54.4562ZM122.868 53.8082C123.892 53.8082 124.86 53.4162 125.772 52.6322C126.7 51.8322 127.452 50.6322 128.028 49.0322C128.604 47.4322 128.892 45.4162 128.892 42.9842C128.892 40.5522 128.604 38.5362 128.028 36.9362C127.452 35.3202 126.7 34.1122 125.772 33.3122C124.86 32.5122 123.892 32.1122 122.868 32.1122C121.94 32.1122 121.18 32.5442 120.588 33.4082C120.012 34.2562 119.588 35.4882 119.316 37.1042C119.06 38.7202 118.932 40.6802 118.932 42.9842C118.932 45.2882 119.06 47.2482 119.316 48.8642C119.588 50.4642 120.012 51.6882 120.588 52.5362C121.18 53.3842 121.94 53.8082 122.868 53.8082ZM147.557 25.6802C146.405 25.6802 145.437 25.2882 144.653 24.5042C143.869 23.7202 143.477 22.7522 143.477 21.6002C143.477 20.4482 143.869 19.4802 144.653 18.6962C145.437 17.9122 146.405 17.5202 147.557 17.5202C148.709 17.5202 149.677 17.9122 150.461 18.6962C151.245 19.4802 151.637 20.4482 151.637 21.6002C151.637 22.7522 151.245 23.7202 150.461 24.5042C149.677 25.2882 148.709 25.6802 147.557 25.6802ZM150.893 31.9202V53.8322H154.037V54.0002H141.053V53.8322H144.173V32.0882H141.053V31.9202H150.893ZM165.722 32.0882L173.402 47.2802L169.682 55.1762L157.682 32.0882H154.874V31.9202H170.354V32.0882H165.722ZM184.202 31.9202V32.0882H180.338L166.082 63.3362C165.65 64.2482 165.122 64.9922 164.498 65.5682C163.89 66.1602 163.042 66.4562 161.954 66.4562C161.346 66.4562 160.762 66.3202 160.202 66.0482C159.642 65.7762 159.178 65.3682 158.81 64.8242C158.442 64.2962 158.258 63.6322 158.258 62.8322C158.258 62.0962 158.426 61.4482 158.762 60.8882C159.114 60.3282 159.578 59.8882 160.154 59.5682C160.746 59.2482 161.402 59.0882 162.122 59.0882C162.826 59.0882 163.482 59.2802 164.09 59.6642C164.698 60.0642 165.162 60.6002 165.482 61.2722C165.818 61.9442 165.914 62.7042 165.77 63.5522L180.122 32.0882H175.37V31.9202H184.202ZM197.427 54.4802C195.171 54.4802 193.155 54.0402 191.379 53.1602C189.603 52.2642 188.203 50.9602 187.179 49.2482C186.155 47.5362 185.643 45.4402 185.643 42.9602C185.643 40.4802 186.139 38.3842 187.131 36.6722C188.139 34.9602 189.515 33.6642 191.259 32.7842C193.003 31.8882 195.003 31.4402 197.259 31.4402C199.643 31.4402 201.611 31.9202 203.163 32.8802C204.715 33.8242 205.867 35.0642 206.619 36.6002C207.387 38.1362 207.771 39.7762 207.771 41.5202H188.859V41.3522H200.643C200.643 40.2962 200.603 39.2082 200.523 38.0882C200.459 36.9522 200.315 35.8962 200.091 34.9202C199.883 33.9282 199.547 33.1282 199.083 32.5202C198.635 31.9122 198.027 31.6082 197.259 31.6082C196.443 31.6082 195.763 31.9122 195.219 32.5202C194.675 33.1282 194.243 33.9522 193.923 34.9922C193.619 36.0322 193.403 37.2002 193.275 38.4962C193.147 39.7762 193.083 41.1042 193.083 42.4802C193.083 44.0322 193.155 45.5122 193.299 46.9202C193.459 48.3122 193.739 49.5442 194.139 50.6162C194.539 51.6882 195.099 52.5362 195.819 53.1602C196.539 53.7842 197.459 54.0962 198.579 54.0962C200.851 54.0962 202.787 53.4402 204.387 52.1282C205.987 50.8002 207.083 49.1442 207.675 47.1602H207.843C207.219 49.2402 206.051 50.9842 204.339 52.3922C202.627 53.7842 200.323 54.4802 197.427 54.4802ZM236.654 31.9202V32.0882H232.67L223.549 54.4802H221.75L212.558 32.0882H209.606V31.9202H223.598V32.0882H219.974L225.854 48.2642L232.43 32.0882H227.846V31.9202H236.654ZM243.287 54.4802C242.487 54.4802 241.759 54.2882 241.103 53.9042C240.463 53.5042 239.943 52.9762 239.543 52.3202C239.159 51.6642 238.967 50.9442 238.967 50.1602C238.967 49.3762 239.159 48.6562 239.543 48.0002C239.943 47.3282 240.463 46.8002 241.103 46.4162C241.759 46.0162 242.487 45.8162 243.287 45.8162C244.071 45.8162 244.791 46.0162 245.447 46.4162C246.119 46.8002 246.647 47.3282 247.031 48.0002C247.415 48.6562 247.607 49.3762 247.607 50.1602C247.607 50.9442 247.415 51.6642 247.031 52.3202C246.647 52.9762 246.119 53.5042 245.447 53.9042C244.791 54.2882 244.071 54.4802 243.287 54.4802Z" fill="#3E3E3E"/>
</svg>
