<svg width="50" height="50" viewBox="0 0 50 50" fill="none" xmlns="http://www.w3.org/2000/svg">
<g clip-path="url(#clip0_27_170)">
<path d="M38.1859 4.90533L12.3538 4.68835C11.5252 4.68188 10.728 5.00477 10.1374 5.58601C9.5468 6.16726 9.21125 6.95927 9.20452 7.78788L8.94083 41.3022C8.93771 41.7127 9.01553 42.1199 9.16982 42.5004C9.32412 42.8808 9.55188 43.2272 9.84009 43.5196C10.1283 43.812 10.4713 44.0447 10.8495 44.2045C11.2277 44.3643 11.6337 44.448 12.0442 44.4508L37.8763 44.6678C38.2871 44.6712 38.6945 44.5936 39.0752 44.4393C39.4559 44.2851 39.8025 44.0574 40.0951 43.7691C40.3877 43.4809 40.6206 43.1377 40.7805 42.7594C40.9404 42.381 41.0241 41.9749 41.0269 41.5641L41.2906 8.0498C41.2958 7.22114 40.9716 6.42436 40.3894 5.83467C39.8072 5.24499 39.0146 4.9107 38.1859 4.90533ZM26.6718 25.1207C26.6688 25.4877 26.5366 25.842 26.2985 26.1213C26.0605 26.4007 25.7316 26.5873 25.3697 26.6485C25.2793 26.6636 25.1878 26.671 25.0962 26.6706L16.8655 26.6012C16.47 26.5715 16.1005 26.3925 15.832 26.1005C15.5635 25.8084 15.4162 25.4252 15.4199 25.0285C15.4235 24.6319 15.578 24.2514 15.8518 23.9644C16.1256 23.6774 16.4984 23.5053 16.8945 23.483L25.1199 23.5454C25.3253 23.5468 25.5284 23.5887 25.7176 23.6686C25.9068 23.7486 26.0783 23.865 26.2225 24.0113C26.3666 24.1577 26.4805 24.3309 26.5576 24.5213C26.6347 24.7117 26.6735 24.9153 26.6718 25.1207ZM34.9426 18.943C34.9395 19.3097 34.8076 19.6636 34.57 19.9429C34.3323 20.2221 34.0039 20.4088 33.6424 20.4704C33.5513 20.4859 33.459 20.4928 33.3666 20.491L16.9057 20.3539C16.4912 20.3503 16.0951 20.1821 15.8046 19.8864C15.514 19.5907 15.3529 19.1917 15.3566 18.7772C15.3602 18.3627 15.5284 17.9666 15.8241 17.6761C16.1198 17.3856 16.5188 17.2244 16.9333 17.2281L33.3946 17.367C33.6001 17.3682 33.8033 17.4098 33.9927 17.4897C34.1821 17.5695 34.3539 17.6859 34.4982 17.8322C34.6425 17.9785 34.7566 18.1518 34.8338 18.3422C34.9111 18.5327 34.95 18.7365 34.9484 18.942L34.9426 18.943ZM34.992 12.6922C34.989 13.0592 34.8568 13.4135 34.6188 13.6928C34.3807 13.9722 34.0519 14.1588 33.6899 14.22C33.5995 14.235 33.508 14.2424 33.4164 14.2421L16.9551 14.1032C16.7462 14.1074 16.5386 14.0697 16.3445 13.9923C16.1504 13.9149 15.9739 13.7993 15.8252 13.6524C15.6766 13.5056 15.5589 13.3304 15.4792 13.1372C15.3995 12.9441 15.3593 12.7369 15.361 12.528C15.3628 12.3191 15.4064 12.1126 15.4893 11.9208C15.5723 11.729 15.6928 11.5558 15.8439 11.4115C15.9949 11.2671 16.1734 11.1545 16.3688 11.0803C16.5641 11.0061 16.7723 10.9719 16.9811 10.9796L33.4421 11.1166C33.6477 11.1175 33.8512 11.159 34.0408 11.2386C34.2303 11.3183 34.4023 11.4346 34.5469 11.5809C34.6914 11.7272 34.8056 11.9006 34.883 12.0911C34.9604 12.2817 34.9994 12.4856 34.9978 12.6912L34.992 12.6922Z" fill="#3E3E3E"/>
</g>
<defs>
<clipPath id="clip0_27_170">
<rect width="50" height="50" fill="white"/>
</clipPath>
</defs>
</svg>
